<?xml version="1.0" encoding="UTF-8"?><svg xmlns="http://www.w3.org/2000/svg" xmlns:xlink="http://www.w3.org/1999/xlink" fill-opacity="1" color-rendering="auto" color-interpolation="auto" text-rendering="auto" stroke="black" stroke-linecap="square" width="818" stroke-miterlimit="10" shape-rendering="auto" stroke-opacity="1" fill="black" stroke-dasharray="none" font-weight="normal" stroke-width="1" height="430" font-family="'Dialog'" font-style="normal" stroke-linejoin="miter" font-size="12px" stroke-dashoffset="0" image-rendering="auto">
  <!--Generated by ySVG 2.5-->
  <defs id="genericDefs"/>
  <g>
    <defs id="defs1">
      <clipPath clipPathUnits="userSpaceOnUse" id="clipPath1">
        <path d="M0 0 L818 0 L818 430 L0 430 L0 0 Z"/>
      </clipPath>
      <clipPath clipPathUnits="userSpaceOnUse" id="clipPath2">
        <path d="M303 133 L1121 133 L1121 563 L303 563 L303 133 Z"/>
      </clipPath>
    </defs>
    <g fill="white" text-rendering="geometricPrecision" shape-rendering="geometricPrecision" transform="translate(-303,-133)" stroke="white">
      <rect x="303" width="818" height="430" y="133" clip-path="url(#clipPath2)" stroke="none"/>
    </g>
    <g fill="rgb(255,255,153)" text-rendering="geometricPrecision" shape-rendering="geometricPrecision" transform="matrix(1,0,0,1,-303,-133)" stroke="rgb(255,255,153)">
      <rect x="318.5" width="105" height="88" y="304" clip-path="url(#clipPath2)" stroke="none"/>
    </g>
    <g text-rendering="geometricPrecision" stroke-miterlimit="1.45" shape-rendering="geometricPrecision" transform="matrix(1,0,0,1,-303,-133)" stroke-linecap="butt">
      <rect fill="none" x="318.5" width="105" height="88" y="304" clip-path="url(#clipPath2)"/>
      <text x="328.6484" xml:space="preserve" y="352.7139" clip-path="url(#clipPath2)" font-family="sans-serif" stroke="none">Cash Payments</text>
    </g>
    <g fill="rgb(204,255,204)" text-rendering="geometricPrecision" shape-rendering="geometricPrecision" transform="matrix(1,0,0,1,-303,-133)" stroke="rgb(204,255,204)">
      <rect x="318.5" width="105" height="88" y="196" clip-path="url(#clipPath2)" stroke="none"/>
    </g>
    <g text-rendering="geometricPrecision" stroke-miterlimit="1.45" shape-rendering="geometricPrecision" transform="matrix(1,0,0,1,-303,-133)" stroke-linecap="butt">
      <rect fill="none" x="318.5" width="105" height="88" y="196" clip-path="url(#clipPath2)"/>
      <text x="347.3193" xml:space="preserve" y="244.7139" clip-path="url(#clipPath2)" font-family="sans-serif" stroke="none">Invoicing</text>
    </g>
    <g fill="rgb(204,153,255)" text-rendering="geometricPrecision" shape-rendering="geometricPrecision" transform="matrix(1,0,0,1,-303,-133)" stroke="rgb(204,153,255)">
      <rect x="318.5" width="105" height="88" y="412" clip-path="url(#clipPath2)" stroke="none"/>
    </g>
    <g text-rendering="geometricPrecision" stroke-miterlimit="1.45" shape-rendering="geometricPrecision" transform="matrix(1,0,0,1,-303,-133)" stroke-linecap="butt">
      <rect fill="none" x="318.5" width="105" height="88" y="412" clip-path="url(#clipPath2)"/>
      <text x="324.3066" xml:space="preserve" y="460.7139" clip-path="url(#clipPath2)" font-family="sans-serif" stroke="none">Journal Vouchers</text>
    </g>
    <g fill="rgb(255,153,204)" text-rendering="geometricPrecision" shape-rendering="geometricPrecision" transform="matrix(1,0,0,1,-303,-133)" stroke="rgb(255,153,204)">
      <rect x="547.5" width="105" height="88" y="304" clip-path="url(#clipPath2)" stroke="none"/>
    </g>
    <g text-rendering="geometricPrecision" stroke-miterlimit="1.45" shape-rendering="geometricPrecision" transform="matrix(1,0,0,1,-303,-133)" stroke-linecap="butt">
      <rect fill="none" x="547.5" width="105" height="88" y="304" clip-path="url(#clipPath2)"/>
      <text x="558.6416" xml:space="preserve" y="352.7139" clip-path="url(#clipPath2)" font-family="sans-serif" stroke="none">Posting Journal</text>
    </g>
    <g fill="rgb(153,204,255)" text-rendering="geometricPrecision" shape-rendering="geometricPrecision" transform="matrix(1,0,0,1,-303,-133)" stroke="rgb(153,204,255)">
      <rect x="787.5" width="105" height="88" y="304" clip-path="url(#clipPath2)" stroke="none"/>
    </g>
    <g text-rendering="geometricPrecision" stroke-miterlimit="1.45" shape-rendering="geometricPrecision" transform="matrix(1,0,0,1,-303,-133)" stroke-linecap="butt">
      <rect fill="none" x="787.5" width="105" height="88" y="304" clip-path="url(#clipPath2)"/>
      <text x="798.3047" xml:space="preserve" y="352.7139" clip-path="url(#clipPath2)" font-family="sans-serif" stroke="none">General Ledger</text>
    </g>
    <g fill="rgb(255,204,0)" text-rendering="geometricPrecision" shape-rendering="geometricPrecision" transform="matrix(1,0,0,1,-303,-133)" stroke="rgb(255,204,0)">
      <path d="M967 211 L1036.5 148 L1106 211 L1036.5 274 Z" fill-rule="evenodd" clip-path="url(#clipPath2)" stroke="none"/>
    </g>
    <g text-rendering="geometricPrecision" stroke-miterlimit="1.45" shape-rendering="geometricPrecision" transform="matrix(1,0,0,1,-303,-133)" stroke-linecap="butt">
      <path fill="none" d="M967 211 L1036.5 148 L1106 211 L1036.5 274 Z" fill-rule="evenodd" clip-path="url(#clipPath2)"/>
      <text x="984.4717" xml:space="preserve" y="208.3633" clip-path="url(#clipPath2)" font-family="sans-serif" stroke="none">Income &amp; Expense </text>
      <text x="1018.4912" xml:space="preserve" y="223.0645" clip-path="url(#clipPath2)" font-family="sans-serif" stroke="none">Report</text>
    </g>
    <g fill="rgb(255,204,0)" text-rendering="geometricPrecision" shape-rendering="geometricPrecision" transform="matrix(1,0,0,1,-303,-133)" stroke="rgb(255,204,0)">
      <path d="M967 348 L1036.5 285 L1106 348 L1036.5 411 Z" fill-rule="evenodd" clip-path="url(#clipPath2)" stroke="none"/>
    </g>
    <g text-rendering="geometricPrecision" stroke-miterlimit="1.45" shape-rendering="geometricPrecision" transform="matrix(1,0,0,1,-303,-133)" stroke-linecap="butt">
      <path fill="none" d="M967 348 L1036.5 285 L1106 348 L1036.5 411 Z" fill-rule="evenodd" clip-path="url(#clipPath2)"/>
      <text x="1011.8232" xml:space="preserve" y="345.3633" clip-path="url(#clipPath2)" font-family="sans-serif" stroke="none">Cashflow</text>
      <text x="1018.4912" xml:space="preserve" y="360.0645" clip-path="url(#clipPath2)" font-family="sans-serif" stroke="none">Report</text>
    </g>
    <g fill="rgb(255,204,0)" text-rendering="geometricPrecision" shape-rendering="geometricPrecision" transform="matrix(1,0,0,1,-303,-133)" stroke="rgb(255,204,0)">
      <path d="M967 485 L1036.5 422 L1106 485 L1036.5 548 Z" fill-rule="evenodd" clip-path="url(#clipPath2)" stroke="none"/>
    </g>
    <g text-rendering="geometricPrecision" stroke-miterlimit="1.45" shape-rendering="geometricPrecision" transform="matrix(1,0,0,1,-303,-133)" stroke-linecap="butt">
      <path fill="none" d="M967 485 L1036.5 422 L1106 485 L1036.5 548 Z" fill-rule="evenodd" clip-path="url(#clipPath2)"/>
      <text x="997.4707" xml:space="preserve" y="482.3633" clip-path="url(#clipPath2)" font-family="sans-serif" stroke="none">Balance Sheet</text>
      <text x="1018.4912" xml:space="preserve" y="497.0645" clip-path="url(#clipPath2)" font-family="sans-serif" stroke="none">Report</text>
    </g>
    <g fill="fuchsia" text-rendering="geometricPrecision" shape-rendering="geometricPrecision" transform="matrix(1,0,0,1,-303,-133)" stroke="fuchsia">
      <path d="M667.5 348 L678.0002 303.5 L762 303.5 L772.5001 348 L762 392.5 L678.0002 392.5 Z" fill-rule="evenodd" clip-path="url(#clipPath2)" stroke="none"/>
    </g>
    <g text-rendering="geometricPrecision" stroke-miterlimit="1.45" shape-rendering="geometricPrecision" transform="matrix(1,0,0,1,-303,-133)" stroke-linecap="butt">
      <path fill="none" d="M667.5 348 L678.0002 303.5 L762 303.5 L772.5001 348 L762 392.5 L678.0002 392.5 Z" fill-rule="evenodd" clip-path="url(#clipPath2)"/>
      <text x="684.9844" xml:space="preserve" y="352.7139" clip-path="url(#clipPath2)" font-family="sans-serif" stroke="none">Trial Balance</text>
      <path fill="none" d="M423.5 264.7598 L540.2643 319.8277" clip-path="url(#clipPath2)"/>
      <path d="M547.5 323.2402 L538.7793 313.5992 L539.3599 319.4011 L534.5137 322.6437 Z" clip-path="url(#clipPath2)" stroke="none"/>
      <path fill="none" d="M423.5 348 L539.5 348" clip-path="url(#clipPath2)"/>
      <path d="M547.5 348 L535.5 343 L538.5 348 L535.5 353 Z" clip-path="url(#clipPath2)" stroke="none"/>
      <path fill="none" d="M423.5 431.2402 L540.2643 376.1723" clip-path="url(#clipPath2)"/>
      <path d="M547.5 372.7598 L534.5137 373.3563 L539.3599 376.5989 L538.7793 382.4008 Z" clip-path="url(#clipPath2)" stroke="none"/>
      <path fill="none" d="M892.5 311.3969 L990.668 242.9541" clip-path="url(#clipPath2)"/>
      <path d="M997.2305 238.3788 L984.5272 241.1402 L989.8477 243.526 L990.2463 249.3434 Z" clip-path="url(#clipPath2)" stroke="none"/>
      <path fill="none" d="M892.5 348 L958.9961 348" clip-path="url(#clipPath2)"/>
      <path d="M966.9961 348 L954.9961 343 L957.9961 348 L954.9961 353 Z" clip-path="url(#clipPath2)" stroke="none"/>
      <path fill="none" d="M892.5 384.6031 L990.668 453.0459" clip-path="url(#clipPath2)"/>
      <path d="M997.2305 457.6212 L990.2463 446.6566 L989.8477 452.4739 L984.5272 454.8597 Z" clip-path="url(#clipPath2)" stroke="none"/>
      <path fill="none" d="M652.5 348 L659.4963 348" clip-path="url(#clipPath2)"/>
      <path d="M667.4963 348 L655.4963 343 L658.4963 348 L655.4963 353 Z" clip-path="url(#clipPath2)" stroke="none"/>
      <path fill="none" d="M772.5293 348 L779.5 348" clip-path="url(#clipPath2)"/>
      <path d="M787.5 348 L775.5 343 L778.5 348 L775.5 353 Z" clip-path="url(#clipPath2)" stroke="none"/>
    </g>
  </g>
</svg>
