<?xml version="1.0" encoding="UTF-8"?><svg xmlns="http://www.w3.org/2000/svg" xmlns:xlink="http://www.w3.org/1999/xlink" fill-opacity="1" color-rendering="auto" color-interpolation="auto" text-rendering="auto" stroke="black" stroke-linecap="square" width="716" stroke-miterlimit="10" shape-rendering="auto" stroke-opacity="1" fill="black" stroke-dasharray="none" font-weight="normal" stroke-width="1" height="591" font-family="'Dialog'" font-style="normal" stroke-linejoin="miter" font-size="12px" stroke-dashoffset="0" image-rendering="auto">
  <!--Generated by ySVG 2.5-->
  <defs id="genericDefs"/>
  <g>
    <defs id="defs1">
      <clipPath clipPathUnits="userSpaceOnUse" id="clipPath1">
        <path d="M0 0 L716 0 L716 591 L0 591 L0 0 Z"/>
      </clipPath>
      <clipPath clipPathUnits="userSpaceOnUse" id="clipPath2">
        <path d="M146 86 L862 86 L862 677 L146 677 L146 86 Z"/>
      </clipPath>
    </defs>
    <g fill="white" text-rendering="geometricPrecision" shape-rendering="geometricPrecision" transform="translate(-146,-86)" stroke="white">
      <rect x="146" width="716" height="591" y="86" clip-path="url(#clipPath2)" stroke="none"/>
    </g>
    <g fill="rgb(153,204,0)" text-rendering="geometricPrecision" shape-rendering="geometricPrecision" transform="matrix(1,0,0,1,-146,-86)" stroke="rgb(153,204,0)">
      <rect x="161" width="105" height="74" y="117" clip-path="url(#clipPath2)" stroke="none"/>
    </g>
    <g text-rendering="geometricPrecision" stroke-miterlimit="1.45" shape-rendering="geometricPrecision" transform="matrix(1,0,0,1,-146,-86)" stroke-linecap="butt">
      <rect fill="none" x="161" width="105" height="74" y="117" clip-path="url(#clipPath2)"/>
      <text x="188.1523" xml:space="preserve" y="158.7139" clip-path="url(#clipPath2)" font-family="sans-serif" stroke="none">Purchase</text>
    </g>
    <g fill="rgb(255,204,0)" text-rendering="geometricPrecision" shape-rendering="geometricPrecision" transform="matrix(1,0,0,1,-146,-86)" stroke="rgb(255,204,0)">
      <path d="M389 381.5 L409.5 279 L573.5 279 L594 381.5 L573.5 484 L409.5 484 Z" fill-rule="evenodd" clip-path="url(#clipPath2)" stroke="none"/>
    </g>
    <g text-rendering="geometricPrecision" stroke-miterlimit="1.45" shape-rendering="geometricPrecision" transform="matrix(1,0,0,1,-146,-86)" stroke-linecap="butt">
      <path fill="none" d="M389 381.5 L409.5 279 L573.5 279 L594 381.5 L573.5 484 L409.5 484 Z" fill-rule="evenodd" clip-path="url(#clipPath2)"/>
      <text x="469.8203" xml:space="preserve" y="386.2139" clip-path="url(#clipPath2)" font-family="sans-serif" stroke="none">Depot A</text>
    </g>
    <g fill="rgb(153,204,0)" text-rendering="geometricPrecision" shape-rendering="geometricPrecision" transform="matrix(1,0,0,1,-146,-86)" stroke="rgb(153,204,0)">
      <rect x="360" width="105" height="74" y="117" clip-path="url(#clipPath2)" stroke="none"/>
    </g>
    <g text-rendering="geometricPrecision" stroke-miterlimit="1.45" shape-rendering="geometricPrecision" transform="matrix(1,0,0,1,-146,-86)" stroke-linecap="butt">
      <rect fill="none" x="360" width="105" height="74" y="117" clip-path="url(#clipPath2)"/>
      <text x="388.4824" xml:space="preserve" y="158.7139" clip-path="url(#clipPath2)" font-family="sans-serif" stroke="none">Donation</text>
    </g>
    <g fill="rgb(153,204,0)" text-rendering="geometricPrecision" shape-rendering="geometricPrecision" transform="matrix(1,0,0,1,-146,-86)" stroke="rgb(153,204,0)">
      <rect x="551" width="105" height="74" y="117" clip-path="url(#clipPath2)" stroke="none"/>
    </g>
    <g text-rendering="geometricPrecision" stroke-miterlimit="1.45" shape-rendering="geometricPrecision" transform="matrix(1,0,0,1,-146,-86)" stroke-linecap="butt">
      <rect fill="none" x="551" width="105" height="74" y="117" clip-path="url(#clipPath2)"/>
      <text x="575.1465" xml:space="preserve" y="158.7139" clip-path="url(#clipPath2)" font-family="sans-serif" stroke="none">Integration</text>
    </g>
    <g fill="rgb(153,204,0)" text-rendering="geometricPrecision" shape-rendering="geometricPrecision" transform="matrix(1,0,0,1,-146,-86)" stroke="rgb(153,204,0)">
      <path d="M742 154 L752.5 101.5 L836.5 101.5 L847 154 L836.5 206.5 L752.5 206.5 Z" fill-rule="evenodd" clip-path="url(#clipPath2)" stroke="none"/>
    </g>
    <g text-rendering="geometricPrecision" stroke-miterlimit="1.45" shape-rendering="geometricPrecision" transform="matrix(1,0,0,1,-146,-86)" stroke-linecap="butt">
      <path fill="none" d="M742 154 L752.5 101.5 L836.5 101.5 L847 154 L836.5 206.5 L752.5 206.5 Z" fill-rule="evenodd" clip-path="url(#clipPath2)"/>
      <text x="772.8203" xml:space="preserve" y="158.7139" clip-path="url(#clipPath2)" font-family="sans-serif" stroke="none">Depot X</text>
    </g>
    <g fill="rgb(255,153,0)" text-rendering="geometricPrecision" shape-rendering="geometricPrecision" transform="matrix(1,0,0,1,-146,-86)" stroke="rgb(255,153,0)">
      <rect x="161" width="105" height="74" y="572" clip-path="url(#clipPath2)" stroke="none"/>
    </g>
    <g text-rendering="geometricPrecision" stroke-miterlimit="1.45" shape-rendering="geometricPrecision" transform="matrix(1,0,0,1,-146,-86)" stroke-linecap="butt">
      <rect fill="none" x="161" width="105" height="74" y="572" clip-path="url(#clipPath2)"/>
      <text x="194.8203" xml:space="preserve" y="613.7139" clip-path="url(#clipPath2)" font-family="sans-serif" stroke="none">Patient</text>
    </g>
    <g fill="rgb(255,153,0)" text-rendering="geometricPrecision" shape-rendering="geometricPrecision" transform="matrix(1,0,0,1,-146,-86)" stroke="rgb(255,153,0)">
      <rect x="360" width="105" height="74" y="572" clip-path="url(#clipPath2)" stroke="none"/>
    </g>
    <g text-rendering="geometricPrecision" stroke-miterlimit="1.45" shape-rendering="geometricPrecision" transform="matrix(1,0,0,1,-146,-86)" stroke-linecap="butt">
      <rect fill="none" x="360" width="105" height="74" y="572" clip-path="url(#clipPath2)"/>
      <text x="392.4932" xml:space="preserve" y="613.7139" clip-path="url(#clipPath2)" font-family="sans-serif" stroke="none">Service</text>
    </g>
    <g fill="rgb(255,153,0)" text-rendering="geometricPrecision" shape-rendering="geometricPrecision" transform="matrix(1,0,0,1,-146,-86)" stroke="rgb(255,153,0)">
      <rect x="551" width="105" height="74" y="572" clip-path="url(#clipPath2)" stroke="none"/>
    </g>
    <g text-rendering="geometricPrecision" stroke-miterlimit="1.45" shape-rendering="geometricPrecision" transform="matrix(1,0,0,1,-146,-86)" stroke-linecap="butt">
      <rect fill="none" x="551" width="105" height="74" y="572" clip-path="url(#clipPath2)"/>
      <text x="590.8262" xml:space="preserve" y="613.7139" clip-path="url(#clipPath2)" font-family="sans-serif" stroke="none">Loss</text>
    </g>
    <g fill="rgb(255,153,0)" text-rendering="geometricPrecision" shape-rendering="geometricPrecision" transform="matrix(1,0,0,1,-146,-86)" stroke="rgb(255,153,0)">
      <path d="M742 609 L752.5 556.5 L836.5 556.5 L847 609 L836.5 661.5 L752.5 661.5 Z" fill-rule="evenodd" clip-path="url(#clipPath2)" stroke="none"/>
    </g>
    <g text-rendering="geometricPrecision" stroke-miterlimit="1.45" shape-rendering="geometricPrecision" transform="matrix(1,0,0,1,-146,-86)" stroke-linecap="butt">
      <path fill="none" d="M742 609 L752.5 556.5 L836.5 556.5 L847 609 L836.5 661.5 L752.5 661.5 Z" fill-rule="evenodd" clip-path="url(#clipPath2)"/>
      <text x="772.8203" xml:space="preserve" y="613.7139" clip-path="url(#clipPath2)" font-family="sans-serif" stroke="none">Depot B</text>
      <path fill="none" d="M258.7132 191 L397.2466 304.3681" clip-path="url(#clipPath2)"/>
      <path d="M403.4377 309.4346 L397.3175 297.9654 L396.4727 303.7348 L390.9844 305.7043 Z" clip-path="url(#clipPath2)" stroke="none"/>
      <path fill="none" d="M425.3484 191 L453.2966 271.4838" clip-path="url(#clipPath2)"/>
      <path d="M455.9209 279.0411 L456.7077 266.065 L452.9685 270.5392 L447.2611 269.3453 Z" clip-path="url(#clipPath2)" stroke="none"/>
      <path fill="none" d="M585.2846 191 L545.4862 271.8405" clip-path="url(#clipPath2)"/>
      <path d="M541.9528 279.0179 L551.7388 270.4602 L545.9279 270.9433 L542.7671 266.0434 Z" clip-path="url(#clipPath2)" stroke="none"/>
      <path fill="none" d="M748.8207 188.2972 L587.0111 309.7879" clip-path="url(#clipPath2)"/>
      <path d="M580.6136 314.5912 L593.212 311.3846 L587.8108 309.1874 L587.2078 303.3878 Z" clip-path="url(#clipPath2)" stroke="none"/>
      <path fill="none" d="M403.4373 453.5657 L264.9044 566.9335" clip-path="url(#clipPath2)"/>
      <path d="M258.7132 572 L271.1665 568.2697 L265.6783 566.3002 L264.8333 560.5308 Z" clip-path="url(#clipPath2)" stroke="none"/>
      <path fill="none" d="M454.2769 483.9762 L422.6667 571 L422.3991 572" clip-path="url(#clipPath2)"/>
      <path d="M422.3991 572 L430.3307 561.7 L424.7252 563.3058 L420.6705 559.1154 Z" clip-path="url(#clipPath2)" stroke="none"/>
      <path fill="none" d="M541.9629 484.0027 L581.7512 564.8226" clip-path="url(#clipPath2)"/>
      <path d="M585.2846 572 L584.4703 559.0255 L581.3094 563.9255 L575.4986 563.4423 Z" clip-path="url(#clipPath2)" stroke="none"/>
      <path fill="none" d="M580.6024 448.4003 L742.4352 569.9084" clip-path="url(#clipPath2)"/>
      <path d="M748.8326 574.7118 L742.2385 563.5083 L741.6355 569.308 L736.2343 571.5052 Z" clip-path="url(#clipPath2)" stroke="none"/>
    </g>
  </g>
</svg>
