<?xml version="1.0" encoding="UTF-8"?><svg xmlns="http://www.w3.org/2000/svg" xmlns:xlink="http://www.w3.org/1999/xlink" fill-opacity="1" color-rendering="auto" color-interpolation="auto" text-rendering="auto" stroke="black" stroke-linecap="square" width="743" stroke-miterlimit="10" shape-rendering="auto" stroke-opacity="1" fill="black" stroke-dasharray="none" font-weight="normal" stroke-width="1" height="385" font-family="'Dialog'" font-style="normal" stroke-linejoin="miter" font-size="12px" stroke-dashoffset="0" image-rendering="auto">
  <!--Generated by ySVG 2.5-->
  <defs id="genericDefs"/>
  <g>
    <defs id="defs1">
      <clipPath clipPathUnits="userSpaceOnUse" id="clipPath1">
        <path d="M0 0 L743 0 L743 385 L0 385 L0 0 Z"/>
      </clipPath>
      <clipPath clipPathUnits="userSpaceOnUse" id="clipPath2">
        <path d="M273 195 L1016 195 L1016 580 L273 580 L273 195 Z"/>
      </clipPath>
    </defs>
    <g fill="white" text-rendering="geometricPrecision" shape-rendering="geometricPrecision" transform="translate(-273,-195)" stroke="white">
      <rect x="273" width="743" height="385" y="195" clip-path="url(#clipPath2)" stroke="none"/>
    </g>
    <g fill="rgb(255,204,0)" text-rendering="geometricPrecision" shape-rendering="geometricPrecision" transform="matrix(1,0,0,1,-273,-195)" stroke="rgb(255,204,0)">
      <rect x="288" width="713" height="51" y="514" clip-path="url(#clipPath2)" stroke="none"/>
    </g>
    <g text-rendering="geometricPrecision" stroke-miterlimit="1.45" shape-rendering="geometricPrecision" transform="matrix(1,0,0,1,-273,-195)" stroke-linecap="butt">
      <rect fill="none" x="288" width="713" height="51" y="514" clip-path="url(#clipPath2)"/>
      <text x="592.8057" xml:space="preserve" y="544.2139" clip-path="url(#clipPath2)" font-family="sans-serif" stroke="none">Stock Management</text>
    </g>
    <g fill="rgb(255,153,0)" text-rendering="geometricPrecision" shape-rendering="geometricPrecision" transform="matrix(1,0,0,1,-273,-195)" stroke="rgb(255,153,0)">
      <rect x="288" width="335" height="51" y="420" clip-path="url(#clipPath2)" stroke="none"/>
    </g>
    <g text-rendering="geometricPrecision" stroke-miterlimit="1.45" shape-rendering="geometricPrecision" transform="matrix(1,0,0,1,-273,-195)" stroke-linecap="butt">
      <rect fill="none" x="288" width="335" height="51" y="420" clip-path="url(#clipPath2)"/>
      <text x="430.8203" xml:space="preserve" y="450.2139" clip-path="url(#clipPath2)" font-family="sans-serif" stroke="none">Inventory</text>
    </g>
    <g fill="rgb(255,153,0)" text-rendering="geometricPrecision" shape-rendering="geometricPrecision" transform="matrix(1,0,0,1,-273,-195)" stroke="rgb(255,153,0)">
      <rect x="646" width="165" height="51" y="420" clip-path="url(#clipPath2)" stroke="none"/>
    </g>
    <g text-rendering="geometricPrecision" stroke-miterlimit="1.45" shape-rendering="geometricPrecision" transform="matrix(1,0,0,1,-273,-195)" stroke-linecap="butt">
      <rect fill="none" x="646" width="165" height="51" y="420" clip-path="url(#clipPath2)"/>
      <text x="712.4893" xml:space="preserve" y="450.2139" clip-path="url(#clipPath2)" font-family="sans-serif" stroke="none">Depot</text>
    </g>
    <g fill="rgb(255,153,0)" text-rendering="geometricPrecision" shape-rendering="geometricPrecision" transform="matrix(1,0,0,1,-273,-195)" stroke="rgb(255,153,0)">
      <rect x="836" width="165" height="51" y="420" clip-path="url(#clipPath2)" stroke="none"/>
    </g>
    <g text-rendering="geometricPrecision" stroke-miterlimit="1.45" shape-rendering="geometricPrecision" transform="matrix(1,0,0,1,-273,-195)" stroke-linecap="butt">
      <rect fill="none" x="836" width="165" height="51" y="420" clip-path="url(#clipPath2)"/>
      <text x="871.4902" xml:space="preserve" y="450.2139" clip-path="url(#clipPath2)" font-family="sans-serif" stroke="none">User Permissions</text>
    </g>
    <g fill="rgb(153,204,0)" text-rendering="geometricPrecision" shape-rendering="geometricPrecision" transform="matrix(1,0,0,1,-273,-195)" stroke="rgb(153,204,0)">
      <rect x="288" width="158" height="51" y="315" clip-path="url(#clipPath2)" stroke="none"/>
    </g>
    <g text-rendering="geometricPrecision" stroke-miterlimit="1.45" shape-rendering="geometricPrecision" transform="matrix(1,0,0,1,-273,-195)" stroke-linecap="butt">
      <rect fill="none" x="288" width="158" height="51" y="315" clip-path="url(#clipPath2)"/>
      <text x="323.9775" xml:space="preserve" y="345.2139" clip-path="url(#clipPath2)" font-family="sans-serif" stroke="none">Inventory Group</text>
    </g>
    <g fill="rgb(153,204,0)" text-rendering="geometricPrecision" shape-rendering="geometricPrecision" transform="matrix(1,0,0,1,-273,-195)" stroke="rgb(153,204,0)">
      <rect x="465" width="158" height="51" y="315" clip-path="url(#clipPath2)" stroke="none"/>
    </g>
    <g text-rendering="geometricPrecision" stroke-miterlimit="1.45" shape-rendering="geometricPrecision" transform="matrix(1,0,0,1,-273,-195)" stroke-linecap="butt">
      <rect fill="none" x="465" width="158" height="51" y="315" clip-path="url(#clipPath2)"/>
      <text x="504.3145" xml:space="preserve" y="345.2139" clip-path="url(#clipPath2)" font-family="sans-serif" stroke="none">Inventory Type</text>
    </g>
    <g fill="rgb(153,204,0)" text-rendering="geometricPrecision" shape-rendering="geometricPrecision" transform="matrix(1,0,0,1,-273,-195)" stroke="rgb(153,204,0)">
      <rect x="642" width="158" height="51" y="315" clip-path="url(#clipPath2)" stroke="none"/>
    </g>
    <g text-rendering="geometricPrecision" stroke-miterlimit="1.45" shape-rendering="geometricPrecision" transform="matrix(1,0,0,1,-273,-195)" stroke-linecap="butt">
      <rect fill="none" x="642" width="158" height="51" y="315" clip-path="url(#clipPath2)"/>
      <text x="683.9834" xml:space="preserve" y="345.2139" clip-path="url(#clipPath2)" font-family="sans-serif" stroke="none">Inventory Unit</text>
    </g>
    <g fill="rgb(153,204,255)" text-rendering="geometricPrecision" shape-rendering="geometricPrecision" transform="matrix(1,0,0,1,-273,-195)" stroke="rgb(153,204,255)">
      <rect x="288" width="158" height="51" y="210" clip-path="url(#clipPath2)" stroke="none"/>
    </g>
    <g text-rendering="geometricPrecision" stroke-miterlimit="1.45" shape-rendering="geometricPrecision" transform="matrix(1,0,0,1,-273,-195)" stroke-linecap="butt">
      <rect fill="none" x="288" width="158" height="51" y="210" clip-path="url(#clipPath2)"/>
      <text x="345.3203" xml:space="preserve" y="240.2139" clip-path="url(#clipPath2)" font-family="sans-serif" stroke="none">Account</text>
      <path fill="none" d="M593.2287 514 L513.9343 474.5625" clip-path="url(#clipPath2)"/>
      <path d="M506.7713 471 L515.2892 480.8206 L514.8297 475.0078 L519.7423 471.8669 Z" clip-path="url(#clipPath2)" stroke="none"/>
      <path fill="none" d="M667.2872 514 L700.3821 476.9652" clip-path="url(#clipPath2)"/>
      <path d="M705.7128 471 L693.9885 476.6162 L699.7158 477.7109 L701.4451 483.2795 Z" clip-path="url(#clipPath2)" stroke="none"/>
      <path fill="none" d="M718.8298 514 L836.6031 473.596" clip-path="url(#clipPath2)"/>
      <path d="M844.1702 471 L831.1971 470.1646 L835.6573 473.9205 L834.4421 479.6234 Z" clip-path="url(#clipPath2)" stroke="none"/>
      <path fill="none" d="M434.0071 420 L393.6486 372.117" clip-path="url(#clipPath2)"/>
      <path d="M388.4929 366 L392.4034 378.3979 L394.2931 372.8817 L400.0497 371.9532 Z" clip-path="url(#clipPath2)" stroke="none"/>
      <path fill="none" d="M476.9929 420 L517.3514 372.117" clip-path="url(#clipPath2)"/>
      <path d="M522.5071 366 L510.9503 371.9532 L516.7069 372.8817 L518.5966 378.3979 Z" clip-path="url(#clipPath2)" stroke="none"/>
      <path fill="none" d="M519.9786 420 L649.0821 368.9421" clip-path="url(#clipPath2)"/>
      <path d="M656.5214 366 L643.5236 365.7636 L648.1522 369.3099 L647.2012 375.0628 Z" clip-path="url(#clipPath2)" stroke="none"/>
      <path fill="none" d="M367 315 L367 269" clip-path="url(#clipPath2)"/>
      <path d="M367 261 L362 273 L367 270 L372 273 Z" clip-path="url(#clipPath2)" stroke="none"/>
    </g>
  </g>
</svg>
